# xmcd
#
# Track frame offsets: 
#        150
#        12950
#        28062
#        43005
#        56565
#        67450
#        79302
#        91837
#        105335
#        116842
#
# Disc length: 1729 seconds
#
# Revision: 4
# Processed by: cddbd v1.5.2PL0 Copyright (c) Steve Scherf et al.
# Submitted via: ExactAudioCopy v0.95b4
#
DISCID=8406bf0a
DTITLE=George Jones - Still The Same Ole Me
DYEAR=1981
DGENRE=Country
TTITLE0=Still Doin' Time
TTITLE1=Couldn't Love Have Picked A Better Place To Die
TTITLE2=I Won't Need You Anymore
TTITLE3=Together Alone
TTITLE4=Daddy Come Home
TTITLE5=You Can't Get The Hell Out Of Texas
TTITLE6=Good Ones And Bad Ones
TTITLE7=Girl, You Sure Know How To Say Goodbye
TTITLE8=Someday My Day Will Come
TTITLE9=Same Ole Me
EXTD=© 2003 Sony Music Custom Marketing Group\n\nOriginally Released 1
EXTD=981\nCD Edition Released June 24, 2003\n\nAMG EXPERT REVIEW:  Rec
EXTD=orded at the peak of his popularity, this album is sometimes rest
EXTD=rained, and sometimes finds Jones at his uncontrollable best. Tho
EXTD=ugh predominantly honky tonk ballads, the best cuts (besides the 
EXTD=obvious hits) include: "Good Ones and Bad Ones," "Together Alone,
EXTD=" and the raucous "You Can't Get the Hell out of Texas."  -- Tom 
EXTD=Roland\n\n\nHalf.com Details \nProducer: Billy Sherrill 
EXTT0=
EXTT1=
EXTT2=
EXTT3=
EXTT4=
EXTT5=
EXTT6=
EXTT7=
EXTT8=
EXTT9=
PLAYORDER=
